{"title":"X.Men.Apocalypse.2016.720p.HDTC.PINK.EDITION.X264-BOLACHASNUKU","uid":14781453,"size":3709954379,"categoryP":"video","categoryS":"movies","magnet":"?xt=urn:btih:c2206f6c32d7fd373dca6c4f5aab5acf3e89a79c&amp;dn=X.Men.Apocalypse.2016.720p.HDTC.PINK.EDITION.X264-BOLACHASNUKU&amp;tr=udp%3A%2F%2Ftracker.leechers-paradise.org%3A6969&amp;tr=udp%3A%2F%2Fzer0day.ch%3A1337&amp;tr=udp%3A%2F%2Fopen.demonii.com%3A1337&amp;tr=udp%3A%2F%2Ftracker.coppersurfer.tk%3A6969&amp;tr=udp%3A%2F%2Fexodus.desync.com%3A6969","seeders":29,"leechers":7,"uploader":"xxxlavalxxx","files":4,"time":1464991093,"description":"http://extraimago.com/image/aURG\r\n \nhttp://www.imdb.com/title/tt3385516/\r\n\r\nWith the emergence of the world's first mutant, Apocalypse, the X-Men must unite to defeat his extinction level plan.\r\n\r\nDirector: Bryan Singer\r\nWriters: Simon Kinberg (screenplay), Bryan Singer (story)\r\nStars: James McAvoy, Michael Fassbender, Jennifer Lawrence\r\nGenres: Action | Adventure | Fantasy | Sci-Fi\r\nCountry: USA\r\nLanguage: English\r\n\r\n\r\nSource screen: http://i.imgur.com/bbd734N.jpg\r\n\r\nFormat                                   : Matroska\r\nFormat version                           : Version 4 / Version 2\r\nFile size                                : 3.43 GiB\r\nDuration                                 : 2h 23mn\r\nOverall bit rate                         : 3 406 Kbps\r\nMovie name                               :   @  \r\nEncoded date                             : UTC 2016-06-03 17:35:50\r\nWriting application                      : mkvmerge v6.7.0 ('Back to the Ground') 64bit built on Jan  8 2014 15:10:52\r\nWriting library                          : libebml v1.3.0 + libmatroska v1.4.1\r\n\r\nVideo\r\nID                                       : 1\r\nFormat                                   : AVC\r\nFormat/Info                              : Advanced Video Codec\r\nFormat profile                           :   \r\nFormat settings, CABAC                   : Yes\r\nFormat settings, ReFrames                : 4 frames\r\nCodec ID                                 : V_MPEG4/ISO/AVC\r\nDuration                                 : 2h 23mn\r\nBit rate                                 : 3 000 Kbps\r\nWidth                                    : 1 280 pixels\r\nHeight                                   : 528 pixels\r\nDisplay aspect ratio                     : 2.40:1\r\nFrame rate                               : 29.970 fps\r\nColor space                              : YUV\r\nChroma subsampling                       : 4:2:0\r\nBit depth                                : 8 bits\r\nScan type                                : Progressive\r\nBits/(Pixel*Frame)                       : 0.148\r\nStream size                              : 2.97 GiB (87%)\r\nWriting library                          : x264 \r\nLanguage                                 : English\r\nDefault                                  : Yes\r\nForced                                   : No\r\nColor primaries                          : BT.709-5, BT.1361, IEC 61966-2-4, SMPTE RP177\r\nTransfer characteristics                 : BT.709-5, BT.1361\r\nMatrix coefficients                      : BT.709-5, BT.1361, IEC 61966-2-4 709, SMPTE RP177\r\n\r\nAudio\r\nID                                       : 2\r\nFormat                                   : AC-3\r\nFormat/Info                              : Audio Coding 3\r\nMode extension                           : CM (complete main)\r\nCodec ID                                 : A_AC3\r\nDuration                                 : 2h 23mn\r\nBit rate mode                            : Constant\r\nBit rate                                 : 384 Kbps\r\nChannel(s)                               : 6 channels\r\nChannel positions                        : Front: L C R, Side: L R, LFE\r\nSampling rate                            : 48.0 KHz\r\nBit depth                                : 16 bits\r\nCompression mode                         : Lossy\r\nStream size                              : 395 MiB (11%)\r\nLanguage                                 : English\r\nDefault                                  : Yes\r\nForced                                   : No\r\n\r\n \nhttp://extraimago.com/image/aZGv \nhttp://extraimago.com/image/aZGA \nhttp://extraimago.com/image/aZGW \nhttp://extraimago.com/image/aZGf \nhttp://extraimago.com/image/aZP8","torrent":{"xt":"urn:btih:c2206f6c32d7fd373dca6c4f5aab5acf3e89a79c","amp;dn":"X.Men.Apocalypse.2016.720p.HDTC.PINK.EDITION.X264-BOLACHASNUKU","amp;tr":["udp%3A%2F%2Ftracker.leechers-paradise.org%3A6969","udp%3A%2F%2Fzer0day.ch%3A1337","udp%3A%2F%2Fopen.demonii.com%3A1337","udp%3A%2F%2Ftracker.coppersurfer.tk%3A6969","udp%3A%2F%2Fexodus.desync.com%3A6969"],"infoHash":"c2206f6c32d7fd373dca6c4f5aab5acf3e89a79c","infoHashBuffer":{"type":"Buffer","data":[194,32,111,108,50,215,253,55,61,202,108,79,90,171,90,207,62,137,167,156]},"announce":[],"urlList":[]}}